<svg xmlns="http://www.w3.org/2000/svg" viewBox="0 0 520 340">
<defs>
 <linearGradient id="box" x1="0" y1="0" x2="1" y2="1"><stop stop-color="#ef3e45"/><stop offset="1" stop-color="#b90d18"/></linearGradient>
 <filter id="s" x="-20%" y="-20%" width="140%" height="160%"><feDropShadow dx="0" dy="14" stdDeviation="12" flood-opacity=".24"/></filter>
</defs>
<ellipse cx="260" cy="286" rx="180" ry="28" fill="#000" opacity=".12"/>
<g filter="url(#s)">
 <path d="M96 126 246 70l178 60-153 66z" fill="#f7f1e7"/>
 <path d="M96 126v106l175 63V196z" fill="url(#box)"/>
 <path d="M271 196v99l153-61V130z" fill="#cf2029"/>
 <path d="m96 126 175 70 153-66-178-60z" fill="#fff7ec" stroke="#b80d17" stroke-width="8"/>
 <path d="M248 82v107M150 150l226 90" stroke="#d71920" stroke-width="22"/>
 <path d="M257 87c-18-39-62-48-74-21-12 29 29 48 72 44M257 87c20-39 65-48 77-20 12 28-29 48-75 44" fill="none" stroke="#d71920" stroke-width="18" stroke-linecap="round"/>
 <circle cx="255" cy="94" r="18" fill="#b80d17"/>
 <text x="183" y="154" font-family="Arial,sans-serif" font-weight="900" font-size="28" fill="#08703c">PAPA JOHNS</text>
</g>
</svg>