<svg xmlns="http://www.w3.org/2000/svg" viewBox="0 0 520 340">
<defs>
 <linearGradient id="wood" x1="0" y1="0" x2="1" y2="1"><stop stop-color="#c58a4c"/><stop offset="1" stop-color="#805024"/></linearGradient>
 <filter id="s" x="-20%" y="-20%" width="140%" height="160%"><feDropShadow dx="0" dy="12" stdDeviation="10" flood-opacity=".24"/></filter>
</defs>
<ellipse cx="260" cy="288" rx="188" ry="26" fill="#000" opacity=".1"/>
<rect x="66" y="56" width="388" height="230" rx="42" fill="url(#wood)" filter="url(#s)"/>
<circle cx="245" cy="171" r="96" fill="#f7f2e7"/>
<circle cx="245" cy="171" r="77" fill="#f4c46b"/>
<path d="M245 171 245 94A77 77 0 0 1 312 133Z" fill="#dd4b36"/>
<path d="M245 171 312 133A77 77 0 0 1 318 211Z" fill="#f1d068"/>
<path d="M245 171 318 211A77 77 0 0 1 244 248Z" fill="#d94b36"/>
<path d="M245 171 244 248A77 77 0 0 1 177 211Z" fill="#f1d068"/>
<path d="M245 171 177 211A77 77 0 0 1 178 131Z" fill="#dd4b36"/>
<path d="M245 171 178 131A77 77 0 0 1 245 94Z" fill="#f1d068"/>
<g fill="#5a2e20"><circle cx="232" cy="122" r="8"/><circle cx="283" cy="150" r="8"/><circle cx="275" cy="210" r="8"/><circle cx="210" cy="204" r="8"/><circle cx="198" cy="152" r="8"/></g>
<rect x="374" y="98" width="36" height="102" rx="12" fill="#e8f6ee" stroke="#08703c" stroke-width="7"/>
<path d="M391 84v24" stroke="#08703c" stroke-width="8" stroke-linecap="round"/>
<circle cx="391" cy="183" r="8" fill="#d71920"/>
<rect x="100" y="106" width="18" height="120" rx="9" fill="#eaeaea"/>
<rect x="127" y="106" width="18" height="120" rx="9" fill="#eaeaea"/>
</svg>